<?xml version="1.0" encoding="UTF-8" standalone="no"?>
<svg
   xmlns:dc="http://purl.org/dc/elements/1.1/"
   xmlns:cc="http://creativecommons.org/ns#"
   xmlns:rdf="http://www.w3.org/1999/02/22-rdf-syntax-ns#"
   xmlns:svg="http://www.w3.org/2000/svg"
   xmlns="http://www.w3.org/2000/svg"
   xmlns:sodipodi="http://sodipodi.sourceforge.net/DTD/sodipodi-0.dtd"
   xmlns:inkscape="http://www.inkscape.org/namespaces/inkscape"
   width="250"
   height="250"
   viewBox="0 0 66.145833 66.145835"
   version="1.1"
   id="svg8"
   inkscape:version="1.0.1 (3bc2e813f5, 2020-09-07)"
   sodipodi:docname="bowler_e4ebf9_bg.svg">
  <defs
     id="defs2" />
  <sodipodi:namedview
     id="base"
     pagecolor="#ffffff"
     bordercolor="#666666"
     borderopacity="1.0"
     inkscape:pageopacity="0"
     inkscape:pageshadow="2"
     inkscape:zoom="2.8"
     inkscape:cx="119.47764"
     inkscape:cy="123.40111"
     inkscape:document-units="px"
     inkscape:current-layer="layer1"
     inkscape:document-rotation="0"
     showgrid="true"
     inkscape:pagecheckerboard="true"
     fit-margin-top="0"
     fit-margin-left="0"
     fit-margin-right="0"
     fit-margin-bottom="0"
     units="px"
     inkscape:window-width="1920"
     inkscape:window-height="1025"
     inkscape:window-x="0"
     inkscape:window-y="27"
     inkscape:window-maximized="1" />
  <metadata
     id="metadata5">
    <rdf:RDF>
      <cc:Work
         rdf:about="">
        <dc:format>image/svg+xml</dc:format>
        <dc:type
           rdf:resource="http://purl.org/dc/dcmitype/StillImage" />
        <dc:title></dc:title>
        <cc:license
           rdf:resource="http://creativecommons.org/licenses/by-nc-nd/4.0/" />
      </cc:Work>
      <cc:License
         rdf:about="http://creativecommons.org/licenses/by-nc-nd/4.0/">
        <cc:permits
           rdf:resource="http://creativecommons.org/ns#Reproduction" />
        <cc:permits
           rdf:resource="http://creativecommons.org/ns#Distribution" />
        <cc:requires
           rdf:resource="http://creativecommons.org/ns#Notice" />
        <cc:requires
           rdf:resource="http://creativecommons.org/ns#Attribution" />
        <cc:prohibits
           rdf:resource="http://creativecommons.org/ns#CommercialUse" />
      </cc:License>
    </rdf:RDF>
  </metadata>
  <g
     inkscape:label="Capa 1"
     inkscape:groupmode="layer"
     id="layer1"
     transform="translate(-48.040771,-106.09792)">
    <rect
       style="fill:#418cda;stroke:none;stroke-width:0.661053"
       id="rect831"
       width="66.145836"
       height="66.145836"
       x="48.040771"
       y="106.09792" />
    <path
       style="fill:#e4ebf9;fill-opacity:1;stroke-width:0.254188"
       d="m 77.87334,164.00956 c -5.651898,-0.44845 -11.063305,-1.65525 -15.130595,-3.37428 -7.62697,-3.22351 -13.134168,-11.06182 -13.189035,-18.77176 -0.01632,-2.29391 0.260082,-3.25842 1.229401,-4.28998 0.515347,-0.54843 0.894777,-0.70432 1.714311,-0.70432 1.042216,0 1.414061,0.1621 5.538358,2.41437 l 1.765911,0.96436 0.159357,-0.72892 c 0.08765,-0.40091 0.176795,-2.05434 0.198108,-3.67428 0.06673,-5.07213 0.463292,-9.495 1.010409,-11.2692 1.286669,-4.17244 5.898852,-7.7828 11.925006,-9.33476 5.407123,-1.39254 10.697634,-1.39807 15.93454,-0.0167 4.280648,1.12916 7.147191,2.79655 9.718761,5.65315 2.428068,2.69718 2.716748,3.88475 3.077318,12.65936 0.14753,3.59038 0.3063,6.56659 0.35281,6.61381 0.0465,0.0472 1.40207,-0.68217 3.01236,-1.62087 3.21216,-1.87249 4.46688,-2.15456 5.75942,-1.29474 3.03706,2.02029 1.91205,10.30687 -2.19199,16.14584 -3.54884,5.04906 -10.648658,8.89737 -18.92809,10.2596 -2.971189,0.48886 -8.354065,0.65512 -11.95636,0.36929 z m 11.948838,-8.4283 c 4.739815,-0.7456 6.226394,-1.20346 9.560753,-2.9447 2.792639,-1.45835 2.950399,-1.80771 2.773159,-6.14119 -0.0753,-1.84106 -0.1796,-3.39071 -0.23177,-3.44368 -0.0522,-0.053 -1.09365,0.31064 -2.314399,0.80802 -8.493513,3.46055 -17.754305,4.11963 -29.465037,2.097 -4.140731,-0.71518 -6.597587,-1.51584 -8.55789,-2.78895 -0.77918,-0.50603 -1.471248,-0.92006 -1.537928,-0.92006 -0.06668,0 -0.121239,1.83521 -0.121239,4.07824 0,3.9389 0.02083,4.10338 0.609627,4.81379 0.739697,0.89247 4.166568,2.64598 6.580154,3.36701 5.992178,1.79009 15.342573,2.23261 22.70457,1.07452 z"
       id="path860" />
  </g>
</svg>
