<?xml version="1.0" encoding="UTF-8" standalone="no"?>
<svg
   xmlns:dc="http://purl.org/dc/elements/1.1/"
   xmlns:cc="http://creativecommons.org/ns#"
   xmlns:rdf="http://www.w3.org/1999/02/22-rdf-syntax-ns#"
   xmlns:svg="http://www.w3.org/2000/svg"
   xmlns="http://www.w3.org/2000/svg"
   xmlns:sodipodi="http://sodipodi.sourceforge.net/DTD/sodipodi-0.dtd"
   xmlns:inkscape="http://www.inkscape.org/namespaces/inkscape"
   width="250"
   height="250"
   viewBox="0 0 66.145833 66.145835"
   version="1.1"
   id="svg8"
   inkscape:version="1.0.1 (3bc2e813f5, 2020-09-07)"
   sodipodi:docname="bowler_e4ebf9_bg_redimensionado.svg"
   inkscape:export-filename="/home/cosmo/Work/github/MoviePic/resources/ic/bowler_e4ebf9_bg.png"
   inkscape:export-xdpi="300"
   inkscape:export-ydpi="300">
  <defs
     id="defs2" />
  <sodipodi:namedview
     id="base"
     pagecolor="#ffffff"
     bordercolor="#666666"
     borderopacity="1.0"
     inkscape:pageopacity="0"
     inkscape:pageshadow="2"
     inkscape:zoom="2.8"
     inkscape:cx="119.47764"
     inkscape:cy="123.40111"
     inkscape:document-units="px"
     inkscape:current-layer="layer1"
     inkscape:document-rotation="0"
     showgrid="true"
     inkscape:pagecheckerboard="true"
     fit-margin-top="0"
     fit-margin-left="0"
     fit-margin-right="0"
     fit-margin-bottom="0"
     units="px"
     inkscape:window-width="1920"
     inkscape:window-height="1025"
     inkscape:window-x="0"
     inkscape:window-y="27"
     inkscape:window-maximized="1" />
  <metadata
     id="metadata5">
    <rdf:RDF>
      <cc:Work
         rdf:about="">
        <dc:format>image/svg+xml</dc:format>
        <dc:type
           rdf:resource="http://purl.org/dc/dcmitype/StillImage" />
        <dc:title></dc:title>
        <cc:license
           rdf:resource="http://creativecommons.org/licenses/by-nc-nd/4.0/" />
      </cc:Work>
      <cc:License
         rdf:about="http://creativecommons.org/licenses/by-nc-nd/4.0/">
        <cc:permits
           rdf:resource="http://creativecommons.org/ns#Reproduction" />
        <cc:permits
           rdf:resource="http://creativecommons.org/ns#Distribution" />
        <cc:requires
           rdf:resource="http://creativecommons.org/ns#Notice" />
        <cc:requires
           rdf:resource="http://creativecommons.org/ns#Attribution" />
        <cc:prohibits
           rdf:resource="http://creativecommons.org/ns#CommercialUse" />
      </cc:License>
    </rdf:RDF>
  </metadata>
  <g
     inkscape:label="Capa 1"
     inkscape:groupmode="layer"
     id="layer1"
     transform="translate(-48.040771,-106.09792)">
    <rect
       style="fill:#418cda;stroke:none;stroke-width:0.661053"
       id="rect831"
       width="66.145836"
       height="66.145836"
       x="48.040771"
       y="106.09792" />
    <path
       style="fill:#e4ebf9;fill-opacity:1;stroke-width:0.213094"
       d="M 78.397196,159.99395 C 73.659024,159.618 69.122463,158.6063 65.71272,157.16518 59.31878,154.46281 54.701915,147.8917 54.655918,141.4282 c -0.01368,-1.92306 0.218035,-2.73164 1.030647,-3.59643 0.432033,-0.45977 0.750121,-0.59046 1.437164,-0.59046 0.873724,0 1.185454,0.1359 4.642988,2.02405 l 1.480421,0.80845 0.133594,-0.61107 c 0.07348,-0.3361 0.148213,-1.72222 0.166081,-3.08027 0.05594,-4.25214 0.388393,-7.95997 0.847059,-9.44734 1.078657,-3.4979 4.945202,-6.52458 9.997125,-7.82564 4.532969,-1.16741 8.968179,-1.17205 13.358449,-0.014 3.588609,0.94661 5.991726,2.34444 8.147558,4.73922 2.035529,2.26114 2.277539,3.25671 2.579817,10.61276 0.123679,3.00993 0.256781,5.50499 0.295772,5.54457 0.03898,0.0396 1.175402,-0.57188 2.525357,-1.35883 2.69286,-1.56977 3.74474,-1.80623 4.82832,-1.08542 2.54607,1.69368 1.60293,8.64059 -1.83762,13.53559 -2.97511,4.23279 -8.927123,7.45896 -15.868043,8.60096 -2.490846,0.40983 -7.003488,0.54921 -10.023411,0.30959 z m 10.017105,-7.06572 c 3.973543,-0.62506 5.219791,-1.0089 8.015094,-2.46864 2.341161,-1.22258 2.473416,-1.51546 2.32483,-5.14836 -0.06313,-1.54342 -0.150564,-2.84254 -0.1943,-2.88695 -0.04376,-0.0444 -0.916843,0.26042 -1.940237,0.67739 -7.120392,2.90109 -14.884019,3.45362 -24.701511,1.75799 -3.471311,-0.59956 -5.530974,-1.27078 -7.174361,-2.33807 -0.653212,-0.42422 -1.233395,-0.77132 -1.289295,-0.77132 -0.0559,0 -0.101639,1.53852 -0.101639,3.41892 0,3.30211 0.01746,3.44 0.51107,4.03556 0.620113,0.74819 3.492971,2.21821 5.51636,2.82268 5.02344,1.50069 12.862184,1.87167 19.033989,0.9008 z"
       id="path860" />
  </g>
</svg>
